<mxfile host="app.diagrams.net" agent="Mozilla/5.0 (Windows NT 10.0; Win64; x64) AppleWebKit/537.36 (KHTML, like Gecko) Chrome/128.0.0.0 Safari/537.36 Edg/128.0.0.0" version="24.7.10">
  <diagram name="Page-1" id="H8YX4mvp1tPYPq6lOHKP">
    <mxGraphModel dx="974" dy="744" grid="1" gridSize="10" guides="1" tooltips="1" connect="1" arrows="1" fold="1" page="1" pageScale="1" pageWidth="850" pageHeight="1100" math="0" shadow="0">
      <root>
        <mxCell id="0" />
        <mxCell id="1" parent="0" />
        <mxCell id="IIV3at36kZY-AhHtreOB-9" value="" style="edgeStyle=orthogonalEdgeStyle;rounded=0;orthogonalLoop=1;jettySize=auto;html=1;" edge="1" parent="1" source="IIV3at36kZY-AhHtreOB-1" target="IIV3at36kZY-AhHtreOB-8">
          <mxGeometry relative="1" as="geometry" />
        </mxCell>
        <mxCell id="IIV3at36kZY-AhHtreOB-1" value="&lt;font style=&quot;font-size: 20px;&quot;&gt;CARD&lt;/font&gt;&lt;div&gt;&lt;font style=&quot;font-size: 20px;&quot;&gt;INSERTED&lt;/font&gt;&lt;/div&gt;" style="shape=parallelogram;perimeter=parallelogramPerimeter;whiteSpace=wrap;html=1;fixedSize=1;" vertex="1" parent="1">
          <mxGeometry x="346.25" y="120" width="172.5" height="60" as="geometry" />
        </mxCell>
        <mxCell id="IIV3at36kZY-AhHtreOB-3" value="" style="edgeStyle=orthogonalEdgeStyle;rounded=0;orthogonalLoop=1;jettySize=auto;html=1;strokeWidth=2;" edge="1" parent="1" source="IIV3at36kZY-AhHtreOB-2" target="IIV3at36kZY-AhHtreOB-1">
          <mxGeometry relative="1" as="geometry" />
        </mxCell>
        <mxCell id="IIV3at36kZY-AhHtreOB-2" value="START" style="ellipse;whiteSpace=wrap;html=1;fontSize=20;" vertex="1" parent="1">
          <mxGeometry x="365" y="30" width="135" height="50" as="geometry" />
        </mxCell>
        <mxCell id="IIV3at36kZY-AhHtreOB-13" value="" style="edgeStyle=orthogonalEdgeStyle;rounded=0;orthogonalLoop=1;jettySize=auto;html=1;" edge="1" parent="1" source="IIV3at36kZY-AhHtreOB-8" target="IIV3at36kZY-AhHtreOB-12">
          <mxGeometry relative="1" as="geometry" />
        </mxCell>
        <mxCell id="IIV3at36kZY-AhHtreOB-8" value="&lt;span style=&quot;font-size: 20px;&quot;&gt;ENTER PIN NUMBER&lt;/span&gt;" style="shape=parallelogram;perimeter=parallelogramPerimeter;whiteSpace=wrap;html=1;fixedSize=1;" vertex="1" parent="1">
          <mxGeometry x="346.25" y="220" width="172.5" height="60" as="geometry" />
        </mxCell>
        <mxCell id="IIV3at36kZY-AhHtreOB-17" value="" style="edgeStyle=orthogonalEdgeStyle;rounded=0;orthogonalLoop=1;jettySize=auto;html=1;" edge="1" parent="1" source="IIV3at36kZY-AhHtreOB-12" target="IIV3at36kZY-AhHtreOB-16">
          <mxGeometry relative="1" as="geometry" />
        </mxCell>
        <mxCell id="IIV3at36kZY-AhHtreOB-20" value="FALSE" style="edgeLabel;html=1;align=center;verticalAlign=middle;resizable=0;points=[];fontSize=15;" vertex="1" connectable="0" parent="IIV3at36kZY-AhHtreOB-17">
          <mxGeometry x="-0.1411" y="-1" relative="1" as="geometry">
            <mxPoint as="offset" />
          </mxGeometry>
        </mxCell>
        <mxCell id="IIV3at36kZY-AhHtreOB-25" value="" style="edgeStyle=orthogonalEdgeStyle;rounded=0;orthogonalLoop=1;jettySize=auto;html=1;" edge="1" parent="1" source="IIV3at36kZY-AhHtreOB-12">
          <mxGeometry relative="1" as="geometry">
            <mxPoint x="432.5999999999999" y="520" as="targetPoint" />
          </mxGeometry>
        </mxCell>
        <mxCell id="IIV3at36kZY-AhHtreOB-26" value="TRUE" style="edgeLabel;html=1;align=center;verticalAlign=middle;resizable=0;points=[];fontSize=15;" vertex="1" connectable="0" parent="IIV3at36kZY-AhHtreOB-25">
          <mxGeometry x="-0.4466" y="2" relative="1" as="geometry">
            <mxPoint x="-2" y="13" as="offset" />
          </mxGeometry>
        </mxCell>
        <mxCell id="IIV3at36kZY-AhHtreOB-12" value="CORRECT PIN?" style="rhombus;whiteSpace=wrap;html=1;fontSize=20;" vertex="1" parent="1">
          <mxGeometry x="358.75" y="320" width="147.5" height="140" as="geometry" />
        </mxCell>
        <mxCell id="IIV3at36kZY-AhHtreOB-19" value="" style="edgeStyle=orthogonalEdgeStyle;rounded=0;orthogonalLoop=1;jettySize=auto;html=1;" edge="1" parent="1" source="IIV3at36kZY-AhHtreOB-16" target="IIV3at36kZY-AhHtreOB-18">
          <mxGeometry relative="1" as="geometry" />
        </mxCell>
        <mxCell id="IIV3at36kZY-AhHtreOB-21" value="TRUE" style="edgeLabel;html=1;align=center;verticalAlign=middle;resizable=0;points=[];fontSize=15;" vertex="1" connectable="0" parent="IIV3at36kZY-AhHtreOB-19">
          <mxGeometry x="-0.0625" y="-1" relative="1" as="geometry">
            <mxPoint x="-1" y="7" as="offset" />
          </mxGeometry>
        </mxCell>
        <mxCell id="IIV3at36kZY-AhHtreOB-33" value="" style="edgeStyle=orthogonalEdgeStyle;rounded=0;orthogonalLoop=1;jettySize=auto;html=1;" edge="1" parent="1" source="IIV3at36kZY-AhHtreOB-16" target="IIV3at36kZY-AhHtreOB-32">
          <mxGeometry relative="1" as="geometry" />
        </mxCell>
        <mxCell id="IIV3at36kZY-AhHtreOB-41" value="FALSE" style="edgeLabel;html=1;align=center;verticalAlign=middle;resizable=0;points=[];fontSize=15;" vertex="1" connectable="0" parent="IIV3at36kZY-AhHtreOB-33">
          <mxGeometry x="-0.1563" y="-1" relative="1" as="geometry">
            <mxPoint as="offset" />
          </mxGeometry>
        </mxCell>
        <mxCell id="IIV3at36kZY-AhHtreOB-16" value="ENTERED 3 TIMES?" style="rhombus;whiteSpace=wrap;html=1;fontSize=20;" vertex="1" parent="1">
          <mxGeometry x="600" y="320" width="147.5" height="140" as="geometry" />
        </mxCell>
        <mxCell id="IIV3at36kZY-AhHtreOB-31" value="" style="edgeStyle=orthogonalEdgeStyle;rounded=0;orthogonalLoop=1;jettySize=auto;html=1;entryX=1;entryY=0.5;entryDx=0;entryDy=0;" edge="1" parent="1" source="IIV3at36kZY-AhHtreOB-18" target="IIV3at36kZY-AhHtreOB-2">
          <mxGeometry relative="1" as="geometry">
            <mxPoint x="430" y="100" as="targetPoint" />
            <Array as="points">
              <mxPoint x="674" y="55" />
            </Array>
          </mxGeometry>
        </mxCell>
        <mxCell id="IIV3at36kZY-AhHtreOB-18" value="REJECT CARD" style="whiteSpace=wrap;html=1;fontSize=20;" vertex="1" parent="1">
          <mxGeometry x="613.75" y="160" width="120" height="60" as="geometry" />
        </mxCell>
        <mxCell id="IIV3at36kZY-AhHtreOB-29" value="" style="edgeStyle=orthogonalEdgeStyle;rounded=0;orthogonalLoop=1;jettySize=auto;html=1;" edge="1" parent="1" source="IIV3at36kZY-AhHtreOB-27" target="IIV3at36kZY-AhHtreOB-28">
          <mxGeometry relative="1" as="geometry" />
        </mxCell>
        <mxCell id="IIV3at36kZY-AhHtreOB-27" value="DISPLAY&lt;div&gt;TRANSACTIONS&lt;/div&gt;" style="shape=parallelogram;perimeter=parallelogramPerimeter;whiteSpace=wrap;html=1;fixedSize=1;fontSize=20;" vertex="1" parent="1">
          <mxGeometry x="306.63" y="520" width="256.75" height="60" as="geometry" />
        </mxCell>
        <mxCell id="IIV3at36kZY-AhHtreOB-43" value="" style="edgeStyle=orthogonalEdgeStyle;rounded=0;orthogonalLoop=1;jettySize=auto;html=1;" edge="1" parent="1" source="IIV3at36kZY-AhHtreOB-28" target="IIV3at36kZY-AhHtreOB-42">
          <mxGeometry relative="1" as="geometry" />
        </mxCell>
        <mxCell id="IIV3at36kZY-AhHtreOB-46" value="" style="edgeStyle=orthogonalEdgeStyle;rounded=0;orthogonalLoop=1;jettySize=auto;html=1;" edge="1" parent="1" source="IIV3at36kZY-AhHtreOB-28" target="IIV3at36kZY-AhHtreOB-45">
          <mxGeometry relative="1" as="geometry" />
        </mxCell>
        <mxCell id="IIV3at36kZY-AhHtreOB-49" value="" style="edgeStyle=orthogonalEdgeStyle;rounded=0;orthogonalLoop=1;jettySize=auto;html=1;" edge="1" parent="1" source="IIV3at36kZY-AhHtreOB-28" target="IIV3at36kZY-AhHtreOB-48">
          <mxGeometry relative="1" as="geometry" />
        </mxCell>
        <mxCell id="IIV3at36kZY-AhHtreOB-28" value="CUSTOMER CHOOSEN&lt;div&gt;TRANSACTION&lt;/div&gt;" style="shape=parallelogram;perimeter=parallelogramPerimeter;whiteSpace=wrap;html=1;fixedSize=1;fontSize=20;" vertex="1" parent="1">
          <mxGeometry x="304.13" y="620" width="261.75" height="60" as="geometry" />
        </mxCell>
        <mxCell id="IIV3at36kZY-AhHtreOB-35" value="" style="edgeStyle=orthogonalEdgeStyle;rounded=0;orthogonalLoop=1;jettySize=auto;html=1;entryX=1;entryY=0.5;entryDx=0;entryDy=0;exitX=0.5;exitY=0;exitDx=0;exitDy=0;" edge="1" parent="1" source="IIV3at36kZY-AhHtreOB-32" target="IIV3at36kZY-AhHtreOB-8">
          <mxGeometry relative="1" as="geometry">
            <mxPoint x="863.75" y="240" as="targetPoint" />
            <Array as="points">
              <mxPoint x="924" y="250" />
            </Array>
          </mxGeometry>
        </mxCell>
        <mxCell id="IIV3at36kZY-AhHtreOB-36" value="TRUE" style="edgeLabel;html=1;align=center;verticalAlign=middle;resizable=0;points=[];fontSize=15;" vertex="1" connectable="0" parent="IIV3at36kZY-AhHtreOB-35">
          <mxGeometry x="-0.8445" y="-2" relative="1" as="geometry">
            <mxPoint x="-2" y="8" as="offset" />
          </mxGeometry>
        </mxCell>
        <mxCell id="IIV3at36kZY-AhHtreOB-40" value="" style="edgeStyle=orthogonalEdgeStyle;rounded=0;orthogonalLoop=1;jettySize=auto;html=1;" edge="1" parent="1" source="IIV3at36kZY-AhHtreOB-32">
          <mxGeometry relative="1" as="geometry">
            <mxPoint x="863.8" y="560" as="targetPoint" />
            <Array as="points">
              <mxPoint x="924" y="560" />
            </Array>
          </mxGeometry>
        </mxCell>
        <mxCell id="IIV3at36kZY-AhHtreOB-32" value="RETRY?" style="rhombus;whiteSpace=wrap;html=1;fontSize=20;" vertex="1" parent="1">
          <mxGeometry x="850" y="320" width="147.5" height="140" as="geometry" />
        </mxCell>
        <mxCell id="IIV3at36kZY-AhHtreOB-42" value="CHECK BALANCE?" style="rhombus;whiteSpace=wrap;html=1;fontSize=20;" vertex="1" parent="1">
          <mxGeometry x="130" y="720" width="160.01" height="140" as="geometry" />
        </mxCell>
        <mxCell id="IIV3at36kZY-AhHtreOB-45" value="WITHDRAWAL?" style="rhombus;whiteSpace=wrap;html=1;fontSize=20;" vertex="1" parent="1">
          <mxGeometry x="355" y="720" width="160.01" height="140" as="geometry" />
        </mxCell>
        <mxCell id="IIV3at36kZY-AhHtreOB-48" value="DEPOSIT?" style="rhombus;whiteSpace=wrap;html=1;fontSize=20;" vertex="1" parent="1">
          <mxGeometry x="570" y="722.5" width="150" height="135" as="geometry" />
        </mxCell>
      </root>
    </mxGraphModel>
  </diagram>
</mxfile>
